<svg version="1.1" id="Layer_1" xmlns="http://www.w3.org/2000/svg" xmlns:xlink="http://www.w3.org/1999/xlink" x="0px" y="0px"
	 width="100%" viewBox="0 0 157 163" enable-background="new 0 0 157 163" xml:space="preserve">
<path fill="#FFFEFE" opacity="1.000000" stroke="none" 
	d="
M1.000000,60.000000 
	C1.000000,40.000008 1.000000,20.500011 1.000000,1.000013 
	C53.333313,1.000009 105.666626,1.000009 157.999954,1.000004 
	C157.999969,55.333298 157.999969,109.666595 157.999985,163.999908 
	C105.666718,163.999939 53.333439,163.999939 1.000080,163.999969 
	C1.000000,129.500000 1.000000,95.000000 1.000000,60.000000 
M41.216572,3.272051 
	C32.209312,6.382475 28.617382,12.627934 31.405930,20.877489 
	C33.550133,27.220835 37.917412,31.640240 44.234833,33.980961 
	C46.791191,34.928139 49.426395,35.662514 52.025719,36.493725 
	C51.988182,36.747196 51.950645,37.000671 51.913109,37.254143 
	C37.005280,37.254143 22.097452,37.254143 7.352592,37.254143 
	C7.352592,45.773582 7.352592,53.855709 7.352592,62.273567 
	C10.653508,62.273567 13.598513,62.273567 17.027122,62.273567 
	C17.027122,89.849724 17.027122,117.081238 17.027122,144.502045 
	C57.381935,144.502045 97.241478,144.502045 137.696991,144.502045 
	C137.696991,116.966301 137.696991,89.747673 137.696991,62.099888 
	C141.212448,62.099888 144.152786,62.099888 147.368256,62.099888 
	C147.368256,53.587849 147.368256,45.513882 147.368256,37.091324 
	C132.394089,37.091324 117.652138,37.091324 102.910194,37.091324 
	C105.089569,35.659912 107.700325,35.392067 109.623772,34.100574 
	C113.669296,31.384224 118.035347,28.677412 121.017502,24.961609 
	C124.890633,20.135639 125.421623,14.209999 121.740501,8.649882 
	C118.632889,3.956017 112.124069,2.011285 105.623062,3.483008 
	C99.808411,4.799351 95.138626,7.902536 91.912941,12.799283 
	C86.820084,20.530493 82.043518,28.470057 76.971687,36.579506 
	C76.236847,35.221874 75.524818,33.759922 74.683380,32.376694 
	C70.622437,25.700958 66.827988,18.835953 62.361614,12.441368 
	C57.538799,5.536469 50.579655,2.379152 41.216572,3.272051 
z"/>
<path fill="#FD5A04" opacity="1.000000" stroke="none" 
	d="
M41.627327,3.202254 
	C50.579655,2.379152 57.538799,5.536469 62.361614,12.441368 
	C66.827988,18.835953 70.622437,25.700958 74.683380,32.376694 
	C75.524818,33.759922 76.236847,35.221874 76.971687,36.579506 
	C82.043518,28.470057 86.820084,20.530493 91.912941,12.799283 
	C95.138626,7.902536 99.808411,4.799351 105.623062,3.483008 
	C112.124069,2.011285 118.632889,3.956017 121.740501,8.649882 
	C125.421623,14.209999 124.890633,20.135639 121.017502,24.961609 
	C118.035347,28.677412 113.669296,31.384224 109.623772,34.100574 
	C107.700325,35.392067 105.089569,35.659912 102.910194,37.091324 
	C117.652138,37.091324 132.394089,37.091324 147.368256,37.091324 
	C147.368256,45.513882 147.368256,53.587849 147.368256,62.099888 
	C144.152786,62.099888 141.212448,62.099888 137.696991,62.099888 
	C137.696991,89.747673 137.696991,116.966301 137.696991,144.502045 
	C97.241478,144.502045 57.381935,144.502045 17.027122,144.502045 
	C17.027122,117.081238 17.027122,89.849724 17.027122,62.273567 
	C13.598513,62.273567 10.653508,62.273567 7.352592,62.273567 
	C7.352592,53.855709 7.352592,45.773582 7.352592,37.254143 
	C22.097452,37.254143 37.005280,37.254143 51.913109,37.254143 
	C51.950645,37.000671 51.988182,36.747196 52.025719,36.493725 
	C49.426395,35.662514 46.791191,34.928139 44.234833,33.980961 
	C37.917412,31.640240 33.550133,27.220835 31.405930,20.877489 
	C28.617382,12.627934 32.209312,6.382475 41.627327,3.202254 
M72.013123,35.057060 
	C72.082253,34.985409 72.151390,34.913754 71.836929,34.286434 
	C68.745026,30.576836 66.048080,26.413263 62.451260,23.284037 
	C58.780342,20.090353 54.375278,17.605104 49.974087,15.461747 
	C48.490242,14.739124 46.034279,16.012651 44.022606,16.373875 
	C44.421360,18.378752 44.195637,20.873541 45.321186,22.308233 
	C52.136929,30.996006 61.877537,33.724136 72.013123,35.057060 
M95.470970,19.881487 
	C91.022240,24.704741 86.573502,29.527994 82.124763,34.351250 
	C90.839645,33.540031 98.942780,31.683172 105.672974,26.242453 
	C107.314583,24.915369 108.860970,23.228300 109.821884,21.379662 
	C110.562828,19.954210 111.056786,17.475807 110.309311,16.455866 
	C109.529396,15.391664 106.922676,14.821814 105.483154,15.256457 
	C102.210869,16.244478 99.164551,17.980865 95.470970,19.881487 
z"/>
<path fill="#FFF7F4" opacity="1.000000" stroke="none" 
	d="
M72.314056,34.786980 
	C61.877537,33.724136 52.136929,30.996006 45.321186,22.308233 
	C44.195637,20.873541 44.421360,18.378752 44.022606,16.373875 
	C46.034279,16.012651 48.490242,14.739124 49.974087,15.461747 
	C54.375278,17.605104 58.780342,20.090353 62.451260,23.284037 
	C66.048080,26.413263 68.745026,30.576836 72.051628,34.549671 
	C72.266327,34.812908 72.314056,34.786980 72.314056,34.786980 
z"/>
<path fill="#FFF9F6" opacity="1.000000" stroke="none" 
	d="
M95.748672,19.647282 
	C99.164551,17.980865 102.210869,16.244478 105.483154,15.256457 
	C106.922676,14.821814 109.529396,15.391664 110.309311,16.455866 
	C111.056786,17.475807 110.562828,19.954210 109.821884,21.379662 
	C108.860970,23.228300 107.314583,24.915369 105.672974,26.242453 
	C98.942780,31.683172 90.839645,33.540031 82.124763,34.351250 
	C86.573502,29.527994 91.022240,24.704741 95.748672,19.647282 
z"/>
<path fill="#FFF7F4" opacity="1.000000" stroke="none" 
	d="
M72.243423,34.827503 
	C72.151390,34.913754 72.082253,34.985409 72.163589,34.922020 
	C72.314056,34.786980 72.266327,34.812908 72.243423,34.827503 
z"/>
</svg>